<svg width="20" height="20" viewBox="0 0 20 20" fill="none" xmlns="http://www.w3.org/2000/svg">
<path fill-rule="evenodd" clip-rule="evenodd" d="M2.96315 4.36492C2.96315 4.1348 3.14969 3.94826 3.37981 3.94826H5.15838C8.36316 3.94826 10.9926 6.43961 10.9926 9.55076V12.681L12.6096 11.1331C12.7758 10.974 13.0396 10.9797 13.1987 11.146C13.3578 11.3122 13.3521 11.576 13.1858 11.7351L10.864 13.9576C10.7029 14.1118 10.4489 14.1118 10.2878 13.9576L7.96598 11.7351C7.79975 11.576 7.79398 11.3122 7.95311 11.146C8.11223 10.9797 8.37599 10.974 8.54222 11.1331L10.1592 12.681V9.55076C10.1592 6.93379 7.93762 4.78159 5.15838 4.78159H3.37981C3.14969 4.78159 2.96315 4.59504 2.96315 4.36492ZM7.09333 13.0978C7.12321 13.326 6.96247 13.5352 6.7343 13.5651C5.61024 13.7123 4.69219 13.9233 4.06627 14.1668C3.75132 14.2894 3.53397 14.4112 3.40275 14.5202C3.29582 14.609 3.27941 14.6597 3.27721 14.6699C3.27887 14.6774 3.28735 14.7017 3.32531 14.7448C3.38189 14.809 3.48433 14.8908 3.65023 14.9819C3.98168 15.1638 4.48888 15.3409 5.15128 15.4947C6.46943 15.8007 8.31133 15.9939 10.3604 15.9939C12.4094 15.9939 14.2513 15.8007 15.5694 15.4947C16.2318 15.3409 16.739 15.1638 17.0705 14.9819C17.2364 14.8908 17.3388 14.809 17.3954 14.7448C17.4339 14.7011 17.4421 14.6767 17.4436 14.6695C17.4418 14.6611 17.4308 14.6278 17.3712 14.5683C17.29 14.4873 17.1486 14.3897 16.9308 14.2855C16.4969 14.0782 15.8454 13.885 15.0173 13.7284C14.7911 13.6856 14.6425 13.4676 14.6853 13.2415C14.7281 13.0154 14.946 12.8668 15.1721 12.9095C16.0318 13.0722 16.7631 13.2818 17.2901 13.5337C17.5527 13.6591 17.7863 13.8052 17.9599 13.9786C18.1347 14.153 18.277 14.3854 18.277 14.6694C18.277 14.9194 18.1661 15.1307 18.0206 15.2958C17.8773 15.4583 17.6851 15.5952 17.4715 15.7124C17.0439 15.9471 16.4527 16.1451 15.7579 16.3064C14.3616 16.6306 12.4535 16.8272 10.3604 16.8272C8.26726 16.8272 6.35915 16.6306 4.96284 16.3064C4.26801 16.1451 3.67685 15.9471 3.24927 15.7124C3.03565 15.5952 2.84339 15.4583 2.70016 15.2958C2.55461 15.1307 2.4437 14.9194 2.4437 14.6694C2.4437 14.3295 2.64543 14.0659 2.87036 13.8791C3.09907 13.6891 3.40914 13.5283 3.76412 13.3902C4.47807 13.1124 5.46993 12.8903 6.62607 12.7388C6.85424 12.7089 7.06344 12.8697 7.09333 13.0978ZM17.4439 14.6717L17.4436 14.6695L17.4439 14.6717ZM17.4436 14.6695L17.4439 14.6673L17.4436 14.6695ZM3.27686 14.6673L3.27702 14.669L3.27686 14.6673Z" fill="#1A93DA"/>
</svg>
