<svg width="21" height="20" viewBox="0 0 21 20" fill="none" xmlns="http://www.w3.org/2000/svg">
<path d="M8.15675 3.92003C7.96333 3.72295 7.64676 3.71999 7.44968 3.91342L3.64968 7.64301C3.54456 7.74618 3.49466 7.88439 3.50034 8.02081C3.49552 8.15048 3.5413 8.27972 3.63265 8.37866L7.36221 12.4181C7.54954 12.621 7.86587 12.6336 8.06876 12.4462C8.27164 12.2589 8.28385 11.9421 8.09653 11.7393L5.14219 8.53948H15.0561C17.4713 8.53948 19.5 10.6412 19.5 13.2703C19.5 15.8995 17.4713 18.0012 15.0561 18.0012L4.00001 18.0012C3.72387 18.0012 3.50001 18.225 3.50001 18.5012C3.50001 18.7773 3.72387 19.0012 4.00001 19.0012L15.0561 19.0012C18.0756 19.0012 20.5 16.3982 20.5 13.2703C20.5 10.1425 18.0756 7.53948 15.0561 7.53948H5.18279L8.15014 4.62711C8.34722 4.43368 8.35018 4.11711 8.15675 3.92003Z" fill="#3B3B3B"/>
</svg>
